<?xml version="1.0" encoding="utf-8"?>
<!-- Generator: Adobe Illustrator 13.0.0, SVG Export Plug-In . SVG Version: 6.00 Build 14948)  -->
<!DOCTYPE svg PUBLIC "-//W3C//DTD SVG 1.1//EN" "http://www.w3.org/Graphics/SVG/1.1/DTD/svg11.dtd">
<svg version="1.1" id="Layer_1" xmlns="http://www.w3.org/2000/svg" xmlns:xlink="http://www.w3.org/1999/xlink" x="0px" y="0px"
	 width="916.594px" height="831.49px" viewBox="0 0 916.594 831.49" enable-background="new 0 0 916.594 831.49"
	 xml:space="preserve">
<g>
	<g>
		<path fill="none" stroke="#FF0000" stroke-width="0.01" d="M752.338,665.195h-25.201v-7.227h-26.346l-0.145,2.161l-11.434,0.144
			v4.922h11.578v6.501h-11.578v7.875h11.578v5.449h-11.875v6.999h11.875v3.602h26.346v-11h25.201V665.195z M752.338,684.621"/>
		<g>
			<path fill="none" stroke="#FF0000" stroke-width="0.01" d="M743.533,711.652c4.677,0,8.504-3.827,8.504-8.504v-54.688
				c0-4.677-3.827-8.504-8.504-8.504h-63.625c-4.677,0-8.504,3.827-8.504,8.504v54.688c0,4.677,3.827,8.504,8.504,8.504H743.533z"/>
		</g>
		<rect x="671.291" y="660.282" fill="none" stroke="#FF0000" stroke-width="0.01" width="30.164" height="31.863"/>
		<circle fill="none" stroke="#FF0000" stroke-width="0.01" cx="743.279" cy="648.707" r="4.252"/>
		<circle fill="none" stroke="#FF0000" stroke-width="0.01" cx="743.279" cy="702.582" r="4.252"/>
		<circle fill="none" stroke="#FF0000" stroke-width="0.01" cx="680.404" cy="648.582" r="4.252"/>
		<circle fill="none" stroke="#FF0000" stroke-width="0.01" cx="680.279" cy="702.582" r="4.252"/>
	</g>
	<g>
		<path fill="none" stroke="#FF0000" stroke-width="0.01" d="M584.48,557.114"/>
		<path fill="none" stroke="#FF0000" stroke-width="0.01" d="M787.869,555.593"/>
		<path fill="none" stroke="#FF0000" stroke-width="0.01" d="M586.408,555.946"/>
		<g>
			<g>
				<g>
					<path fill="none" stroke="#FF0000" stroke-width="0.01" d="M557.497,739.887c-5.5,0-10-4.5-10-10V561.112
						c0-5.5,4.5-9.992,10-9.983l27.997,0.048c5.5,0.009,9.989,4.517,9.976,10.017l-0.014,5.877
						c-0.014,5.5,4.476,10.007,9.976,10.016l163.896,0.26c5.5,0.009,10-4.484,10-9.984v-6.334c0-5.5,4.5-9.989,10-9.976
						l14.115,0.035c5.5,0.013,10,4.524,10,10.024v168.774c0,5.5-4.5,10-10,10H557.497z"/>
				</g>
			</g>
		</g>
		<path fill="none" stroke="#FF0000" stroke-width="0.01" d="M586.953,555.38c-2.672,0-4.836,2.164-4.836,4.836
			s2.164,4.836,4.836,4.836c2.668,0,4.836-2.164,4.836-4.836S589.621,555.38,586.953,555.38L586.953,555.38z"/>
		<path fill="none" stroke="#FF0000" stroke-width="0.01" d="M586.953,555.38"/>
		<path fill="none" stroke="#FF0000" stroke-width="0.01" d="M786.957,555.837c-2.672,0-4.836,2.168-4.836,4.836
			c0,2.672,2.164,4.836,4.836,4.836c2.67,0,4.834-2.164,4.834-4.836C791.791,558.005,789.627,555.837,786.957,555.837
			L786.957,555.837z"/>
		<path fill="none" stroke="#FF0000" stroke-width="0.01" d="M786.957,555.837"/>
		<path fill="none" stroke="#FF0000" stroke-width="0.01" d="M786.666,718.311c-2.67,0-4.834,2.164-4.834,4.836
			s2.164,4.836,4.834,4.836c2.672,0,4.836-2.164,4.836-4.836S789.338,718.311,786.666,718.311L786.666,718.311z"/>
		<path fill="none" stroke="#FF0000" stroke-width="0.01" d="M786.666,718.311"/>
		<path fill="none" stroke="#FF0000" stroke-width="0.01" d="M586.836,717.732c-2.672,0-4.836,2.164-4.836,4.836
			c0,2.668,2.164,4.836,4.836,4.836s4.836-2.168,4.836-4.836C591.672,719.896,589.508,717.732,586.836,717.732L586.836,717.732z"/>
		<path fill="none" stroke="#FF0000" stroke-width="0.01" d="M586.836,717.732"/>
		<g>
			<path fill="none" stroke="#FF0000" stroke-width="0.01" d="M673.449,727.646c-5.5,0-10-4.5-10-10v-83.685c0-5.5,4.5-10,10-10
				h76.73c5.5,0,10,4.5,10,10v83.685c0,5.5-4.5,10-10,10H673.449z"/>
		</g>
		<path fill="none" stroke="#FF0000" stroke-width="0.01" d="M562.636,714.993c-2.67,0-4.834,2.164-4.834,4.836
			s2.164,4.836,4.834,4.836c2.672,0,4.836-2.164,4.836-4.836S565.308,714.993,562.636,714.993L562.636,714.993z"/>
		<path fill="none" stroke="#FF0000" stroke-width="0.01" d="M802.512,725.204c-2.648,0-4.793-2.145-4.793-4.789
			c0-2.648,2.145-4.791,4.793-4.791c2.645,0,4.789,2.143,4.789,4.791C807.301,723.06,805.156,725.204,802.512,725.204
			L802.512,725.204z"/>
	</g>
	<g>
		<g>
			<g>
				<g>
					<path fill="none" stroke="#FF0000" stroke-width="0.01" d="M526.563,56.975c-4.677,0-8.504,3.827-8.504,8.504v54.688
						c0,4.677,3.827,8.504,8.504,8.504h63.625c4.677,0,8.504-3.827,8.504-8.504V65.479c0-4.677-3.827-8.504-8.504-8.504H526.563z"/>
				</g>
				<g>
					<circle fill="none" stroke="#FF0000" stroke-width="0.01" cx="526.817" cy="119.92" r="4.252"/>
				</g>
				<g>
					<circle fill="none" stroke="#FF0000" stroke-width="0.01" cx="526.817" cy="66.045" r="4.252"/>
				</g>
				<g>
					<circle fill="none" stroke="#FF0000" stroke-width="0.01" cx="589.692" cy="120.045" r="4.252"/>
				</g>
				<g>
					<circle fill="none" stroke="#FF0000" stroke-width="0.01" cx="589.817" cy="66.045" r="4.252"/>
				</g>
			</g>
		</g>
		<path fill="none" stroke="#FF0000" stroke-width="0.01" stroke-linejoin="round" d="M493.589,744.933"/>
		<polygon fill="none" stroke="#FF0000" stroke-width="0.01" stroke-linejoin="round" points="671.269,379.086 666.229,387.811 
			656.147,387.811 651.108,379.086 656.147,370.354 666.229,370.354 		"/>
		<path fill="none" stroke="#FF0000" stroke-width="0.01" stroke-linejoin="round" d="M671.269,379.086"/>
		<polygon fill="none" stroke="#FF0000" stroke-width="0.01" stroke-linejoin="round" points="671.269,399.423 666.229,408.149 
			656.147,408.149 651.108,399.423 656.147,390.693 666.229,390.693 		"/>
		<path fill="none" stroke="#FF0000" stroke-width="0.01" stroke-linejoin="round" d="M671.269,399.423"/>
		<polygon fill="none" stroke="#FF0000" stroke-width="0.01" stroke-linejoin="round" points="688.55,389.342 683.507,398.071 
			673.429,398.071 668.39,389.342 673.429,380.611 683.507,380.611 		"/>
		<path fill="none" stroke="#FF0000" stroke-width="0.01" stroke-linejoin="round" d="M688.55,389.342"/>
		<polygon fill="none" stroke="#FF0000" stroke-width="0.01" stroke-linejoin="round" points="688.55,369.182 683.507,377.912 
			673.429,377.912 668.39,369.182 673.429,360.451 683.507,360.451 		"/>
		<path fill="none" stroke="#FF0000" stroke-width="0.01" stroke-linejoin="round" d="M688.55,369.182"/>
		<polygon fill="none" stroke="#FF0000" stroke-width="0.01" stroke-linejoin="round" points="671.269,358.924 666.229,367.654 
			656.147,367.654 651.108,358.924 656.147,350.193 666.229,350.193 		"/>
		<path fill="none" stroke="#FF0000" stroke-width="0.01" stroke-linejoin="round" d="M671.269,358.924"/>
		<polygon fill="none" stroke="#FF0000" stroke-width="0.01" stroke-linejoin="round" points="653.987,369.004 648.948,377.732 
			638.87,377.732 633.827,369.004 638.87,360.271 648.948,360.271 		"/>
		<path fill="none" stroke="#FF0000" stroke-width="0.01" stroke-linejoin="round" d="M653.987,369.004"/>
		<polygon fill="none" stroke="#FF0000" stroke-width="0.01" stroke-linejoin="round" points="653.987,389.342 648.948,398.071 
			638.87,398.071 633.827,389.342 638.87,380.611 648.948,380.611 		"/>
		<path fill="none" stroke="#FF0000" stroke-width="0.01" stroke-linejoin="round" d="M653.987,389.342"/>
		<polygon fill="none" stroke="#FF0000" stroke-width="0.01" stroke-linejoin="round" points="705.827,419.493 700.788,428.22 
			690.71,428.22 685.667,419.493 690.71,410.763 700.788,410.763 		"/>
		<path fill="none" stroke="#FF0000" stroke-width="0.01" stroke-linejoin="round" d="M705.827,419.493"/>
		<polygon fill="none" stroke="#FF0000" stroke-width="0.01" stroke-linejoin="round" points="705.827,439.829 700.788,448.56 
			690.71,448.56 685.667,439.829 690.71,431.103 700.788,431.103 		"/>
		<path fill="none" stroke="#FF0000" stroke-width="0.01" stroke-linejoin="round" d="M705.827,439.829"/>
		<polygon fill="none" stroke="#FF0000" stroke-width="0.01" stroke-linejoin="round" points="723.108,429.751 718.069,438.481 
			707.987,438.481 702.948,429.751 707.987,421.021 718.069,421.021 		"/>
		<path fill="none" stroke="#FF0000" stroke-width="0.01" stroke-linejoin="round" d="M723.108,429.751"/>
		<polygon fill="none" stroke="#FF0000" stroke-width="0.01" stroke-linejoin="round" points="723.108,409.591 718.069,418.321 
			707.987,418.321 702.948,409.591 707.987,400.86 718.069,400.86 		"/>
		<path fill="none" stroke="#FF0000" stroke-width="0.01" stroke-linejoin="round" d="M723.108,409.591"/>
		<polygon fill="none" stroke="#FF0000" stroke-width="0.01" stroke-linejoin="round" points="705.827,399.335 700.788,408.06 
			690.71,408.06 685.667,399.335 690.71,390.604 700.788,390.604 		"/>
		<path fill="none" stroke="#FF0000" stroke-width="0.01" stroke-linejoin="round" d="M705.827,399.335"/>
		<polygon fill="none" stroke="#FF0000" stroke-width="0.01" stroke-linejoin="round" points="688.55,409.411 683.507,418.142 
			673.429,418.142 668.39,409.411 673.429,400.681 683.507,400.681 		"/>
		<path fill="none" stroke="#FF0000" stroke-width="0.01" stroke-linejoin="round" d="M688.55,409.411"/>
		<polygon fill="none" stroke="#FF0000" stroke-width="0.01" stroke-linejoin="round" points="688.55,429.751 683.507,438.481 
			673.429,438.481 668.39,429.751 673.429,421.021 683.507,421.021 		"/>
		<path fill="none" stroke="#FF0000" stroke-width="0.01" stroke-linejoin="round" d="M688.55,429.751"/>
		<polygon fill="none" stroke="#FF0000" stroke-width="0.01" stroke-linejoin="round" points="723.108,368.822 718.069,377.553 
			707.987,377.553 702.948,368.822 707.987,360.096 718.069,360.096 		"/>
		<path fill="none" stroke="#FF0000" stroke-width="0.01" stroke-linejoin="round" d="M723.108,368.822"/>
		<polygon fill="none" stroke="#FF0000" stroke-width="0.01" stroke-linejoin="round" points="723.108,389.162 718.069,397.892 
			707.987,397.892 702.948,389.162 707.987,380.432 718.069,380.432 		"/>
		<path fill="none" stroke="#FF0000" stroke-width="0.01" stroke-linejoin="round" d="M723.108,389.162"/>
		<polygon fill="none" stroke="#FF0000" stroke-width="0.01" stroke-linejoin="round" points="740.39,379.086 735.347,387.811 
			725.269,387.811 720.229,379.086 725.269,370.354 735.347,370.354 		"/>
		<path fill="none" stroke="#FF0000" stroke-width="0.01" stroke-linejoin="round" d="M740.39,379.086"/>
		<polygon fill="none" stroke="#FF0000" stroke-width="0.01" stroke-linejoin="round" points="740.39,358.924 735.347,367.654 
			725.269,367.654 720.229,358.924 725.269,350.193 735.347,350.193 		"/>
		<path fill="none" stroke="#FF0000" stroke-width="0.01" stroke-linejoin="round" d="M740.39,358.924"/>
		<polygon fill="none" stroke="#FF0000" stroke-width="0.01" stroke-linejoin="round" points="723.108,348.662 718.069,357.393 
			707.987,357.393 702.948,348.662 707.987,339.936 718.069,339.936 		"/>
		<path fill="none" stroke="#FF0000" stroke-width="0.01" stroke-linejoin="round" d="M723.108,348.662"/>
		<polygon fill="none" stroke="#FF0000" stroke-width="0.01" stroke-linejoin="round" points="705.827,358.744 700.788,367.475 
			690.71,367.475 685.667,358.744 690.71,350.014 700.788,350.014 		"/>
		<path fill="none" stroke="#FF0000" stroke-width="0.01" stroke-linejoin="round" d="M705.827,358.744"/>
		<polygon fill="none" stroke="#FF0000" stroke-width="0.01" stroke-linejoin="round" points="705.827,379.086 700.788,387.811 
			690.71,387.811 685.667,379.086 690.71,370.354 700.788,370.354 		"/>
		<path fill="none" stroke="#FF0000" stroke-width="0.01" stroke-linejoin="round" d="M705.827,379.086"/>
		<polygon fill="none" stroke="#FF0000" stroke-width="0.01" stroke-linejoin="round" points="688.55,328.504 683.507,337.232 
			673.429,337.232 668.39,328.504 673.429,319.775 683.507,319.775 		"/>
		<path fill="none" stroke="#FF0000" stroke-width="0.01" stroke-linejoin="round" d="M688.55,328.504"/>
		<polygon fill="none" stroke="#FF0000" stroke-width="0.01" stroke-linejoin="round" points="688.55,348.842 683.507,357.572 
			673.429,357.572 668.39,348.842 673.429,340.115 683.507,340.115 		"/>
		<path fill="none" stroke="#FF0000" stroke-width="0.01" stroke-linejoin="round" d="M688.55,348.842"/>
		<polygon fill="none" stroke="#FF0000" stroke-width="0.01" stroke-linejoin="round" points="705.827,338.764 700.788,347.494 
			690.71,347.494 685.667,338.764 690.71,330.033 700.788,330.033 		"/>
		<path fill="none" stroke="#FF0000" stroke-width="0.01" stroke-linejoin="round" d="M705.827,338.764"/>
		<polygon fill="none" stroke="#FF0000" stroke-width="0.01" stroke-linejoin="round" points="705.827,318.604 700.788,327.336 
			690.71,327.336 685.667,318.604 690.71,309.875 700.788,309.875 		"/>
		<path fill="none" stroke="#FF0000" stroke-width="0.01" stroke-linejoin="round" d="M705.827,318.604"/>
		<polygon fill="none" stroke="#FF0000" stroke-width="0.01" stroke-linejoin="round" points="688.55,308.346 683.507,317.072 
			673.429,317.072 668.39,308.346 673.429,299.615 683.507,299.615 		"/>
		<path fill="none" stroke="#FF0000" stroke-width="0.01" stroke-linejoin="round" d="M688.55,308.346"/>
		<polygon fill="none" stroke="#FF0000" stroke-width="0.01" stroke-linejoin="round" points="671.269,318.424 666.229,327.154 
			656.147,327.154 651.108,318.424 656.147,309.693 666.229,309.693 		"/>
		<path fill="none" stroke="#FF0000" stroke-width="0.01" stroke-linejoin="round" d="M671.269,318.424"/>
		<polygon fill="none" stroke="#FF0000" stroke-width="0.01" stroke-linejoin="round" points="671.269,338.764 666.229,347.494 
			656.147,347.494 651.108,338.764 656.147,330.033 666.229,330.033 		"/>
		<path fill="none" stroke="#FF0000" stroke-width="0.01" stroke-linejoin="round" d="M671.269,338.764"/>
		<polygon fill="none" stroke="#FF0000" stroke-width="0.01" stroke-linejoin="round" points="636.71,338.586 631.667,347.314 
			621.589,347.314 616.55,338.586 621.589,329.854 631.667,329.854 		"/>
		<path fill="none" stroke="#FF0000" stroke-width="0.01" stroke-linejoin="round" d="M636.71,338.586"/>
		<polygon fill="none" stroke="#FF0000" stroke-width="0.01" stroke-linejoin="round" points="636.71,358.924 631.667,367.654 
			621.589,367.654 616.55,358.924 621.589,350.193 631.667,350.193 		"/>
		<path fill="none" stroke="#FF0000" stroke-width="0.01" stroke-linejoin="round" d="M636.71,358.924"/>
		<polygon fill="none" stroke="#FF0000" stroke-width="0.01" stroke-linejoin="round" points="653.987,348.842 648.948,357.572 
			638.87,357.572 633.827,348.842 638.87,340.115 648.948,340.115 		"/>
		<path fill="none" stroke="#FF0000" stroke-width="0.01" stroke-linejoin="round" d="M653.987,348.842"/>
		<polygon fill="none" stroke="#FF0000" stroke-width="0.01" stroke-linejoin="round" points="653.987,328.682 648.948,337.412 
			638.87,337.412 633.827,328.682 638.87,319.955 648.948,319.955 		"/>
		<path fill="none" stroke="#FF0000" stroke-width="0.01" stroke-linejoin="round" d="M653.987,328.682"/>
		<polygon fill="none" stroke="#FF0000" stroke-width="0.01" stroke-linejoin="round" points="636.71,318.424 631.667,327.154 
			621.589,327.154 616.55,318.424 621.589,309.693 631.667,309.693 		"/>
		<path fill="none" stroke="#FF0000" stroke-width="0.01" stroke-linejoin="round" d="M636.71,318.424"/>
		<polygon fill="none" stroke="#FF0000" stroke-width="0.01" stroke-linejoin="round" points="619.429,328.504 614.39,337.232 
			604.308,337.232 599.269,328.504 604.308,319.775 614.39,319.775 		"/>
		<path fill="none" stroke="#FF0000" stroke-width="0.01" stroke-linejoin="round" d="M619.429,328.504"/>
		<polygon fill="none" stroke="#FF0000" stroke-width="0.01" stroke-linejoin="round" points="619.429,348.842 614.39,357.572 
			604.308,357.572 599.269,348.842 604.308,340.115 614.39,340.115 		"/>
		<path fill="none" stroke="#FF0000" stroke-width="0.01" stroke-linejoin="round" d="M619.429,348.842"/>
		<polygon fill="none" stroke="#FF0000" stroke-width="0.01" stroke-linejoin="round" points="619.429,389.072 614.39,397.802 
			604.308,397.802 599.269,389.072 604.308,380.346 614.39,380.346 		"/>
		<path fill="none" stroke="#FF0000" stroke-width="0.01" stroke-linejoin="round" d="M619.429,389.072"/>
		<polygon fill="none" stroke="#FF0000" stroke-width="0.01" stroke-linejoin="round" points="619.429,409.411 614.39,418.142 
			604.308,418.142 599.269,409.411 604.308,400.681 614.39,400.681 		"/>
		<path fill="none" stroke="#FF0000" stroke-width="0.01" stroke-linejoin="round" d="M619.429,409.411"/>
		<polygon fill="none" stroke="#FF0000" stroke-width="0.01" stroke-linejoin="round" points="636.71,399.335 631.667,408.06 
			621.589,408.06 616.55,399.335 621.589,390.604 631.667,390.604 		"/>
		<path fill="none" stroke="#FF0000" stroke-width="0.01" stroke-linejoin="round" d="M636.71,399.335"/>
		<polygon fill="none" stroke="#FF0000" stroke-width="0.01" stroke-linejoin="round" points="636.71,379.174 631.667,387.9 
			621.589,387.9 616.55,379.174 621.589,370.443 631.667,370.443 		"/>
		<path fill="none" stroke="#FF0000" stroke-width="0.01" stroke-linejoin="round" d="M636.71,379.174"/>
		<polygon fill="none" stroke="#FF0000" stroke-width="0.01" stroke-linejoin="round" points="619.429,368.912 614.39,377.643 
			604.308,377.643 599.269,368.912 604.308,360.186 614.39,360.186 		"/>
		<path fill="none" stroke="#FF0000" stroke-width="0.01" stroke-linejoin="round" d="M619.429,368.912"/>
		<polygon fill="none" stroke="#FF0000" stroke-width="0.01" stroke-linejoin="round" points="602.147,378.994 597.108,387.725 
			587.03,387.725 581.987,378.994 587.03,370.264 597.108,370.264 		"/>
		<path fill="none" stroke="#FF0000" stroke-width="0.01" stroke-linejoin="round" d="M602.147,378.994"/>
		<polygon fill="none" stroke="#FF0000" stroke-width="0.01" stroke-linejoin="round" points="602.147,399.335 597.108,408.06 
			587.03,408.06 581.987,399.335 587.03,390.604 597.108,390.604 		"/>
		<path fill="none" stroke="#FF0000" stroke-width="0.01" stroke-linejoin="round" d="M602.147,399.335"/>
		<polygon fill="none" stroke="#FF0000" stroke-width="0.01" stroke-linejoin="round" points="653.987,429.481 648.948,438.212 
			638.87,438.212 633.827,429.481 638.87,420.751 648.948,420.751 		"/>
		<path fill="none" stroke="#FF0000" stroke-width="0.01" stroke-linejoin="round" d="M653.987,429.481"/>
		<polygon fill="none" stroke="#FF0000" stroke-width="0.01" stroke-linejoin="round" points="653.987,449.821 648.948,458.552 
			638.87,458.552 633.827,449.821 638.87,441.091 648.948,441.091 		"/>
		<path fill="none" stroke="#FF0000" stroke-width="0.01" stroke-linejoin="round" d="M653.987,449.821"/>
		<polygon fill="none" stroke="#FF0000" stroke-width="0.01" stroke-linejoin="round" points="671.269,439.739 666.229,448.47 
			656.147,448.47 651.108,439.739 656.147,431.013 666.229,431.013 		"/>
		<path fill="none" stroke="#FF0000" stroke-width="0.01" stroke-linejoin="round" d="M671.269,439.739"/>
		<polygon fill="none" stroke="#FF0000" stroke-width="0.01" stroke-linejoin="round" points="671.269,419.579 666.229,428.31 
			656.147,428.31 651.108,419.579 656.147,410.853 666.229,410.853 		"/>
		<path fill="none" stroke="#FF0000" stroke-width="0.01" stroke-linejoin="round" d="M671.269,419.579"/>
		<polygon fill="none" stroke="#FF0000" stroke-width="0.01" stroke-linejoin="round" points="653.987,409.321 648.948,418.052 
			638.87,418.052 633.827,409.321 638.87,400.591 648.948,400.591 		"/>
		<path fill="none" stroke="#FF0000" stroke-width="0.01" stroke-linejoin="round" d="M653.987,409.321"/>
		<polygon fill="none" stroke="#FF0000" stroke-width="0.01" stroke-linejoin="round" points="636.71,419.403 631.667,428.13 
			621.589,428.13 616.55,419.403 621.589,410.673 631.667,410.673 		"/>
		<path fill="none" stroke="#FF0000" stroke-width="0.01" stroke-linejoin="round" d="M636.71,419.403"/>
		<polygon fill="none" stroke="#FF0000" stroke-width="0.01" stroke-linejoin="round" points="636.71,439.739 631.667,448.47 
			621.589,448.47 616.55,439.739 621.589,431.013 631.667,431.013 		"/>
		<path fill="none" stroke="#FF0000" stroke-width="0.01" stroke-linejoin="round" d="M636.71,439.739"/>
		<polygon fill="none" stroke="#FF0000" stroke-width="0.01" stroke-linejoin="round" points="619.429,429.661 614.39,438.392 
			604.308,438.392 599.269,429.661 604.308,420.931 614.39,420.931 		"/>
		<path fill="none" stroke="#FF0000" stroke-width="0.01" stroke-linejoin="round" d="M619.429,429.661"/>
		<polygon fill="none" stroke="#FF0000" stroke-width="0.01" stroke-linejoin="round" points="602.147,419.579 597.108,428.31 
			587.03,428.31 581.987,419.579 587.03,410.853 597.108,410.853 		"/>
		<path fill="none" stroke="#FF0000" stroke-width="0.01" stroke-linejoin="round" d="M602.147,419.579"/>
		<polygon fill="none" stroke="#FF0000" stroke-width="0.01" stroke-linejoin="round" points="671.269,459.899 666.229,468.63 
			656.147,468.63 651.108,459.899 656.147,451.173 666.229,451.173 		"/>
		<path fill="none" stroke="#FF0000" stroke-width="0.01" stroke-linejoin="round" d="M671.269,459.899"/>
		<polygon fill="none" stroke="#FF0000" stroke-width="0.01" stroke-linejoin="round" points="653.987,308.521 648.948,317.254 
			638.87,317.254 633.827,308.521 638.87,299.797 648.948,299.797 		"/>
		<path fill="none" stroke="#FF0000" stroke-width="0.01" stroke-linejoin="round" d="M653.987,308.521"/>
		<polygon fill="none" stroke="#FF0000" stroke-width="0.01" stroke-linejoin="round" points="602.147,359.104 597.108,367.83 
			587.03,367.83 581.987,359.104 587.03,350.375 597.108,350.375 		"/>
		<path fill="none" stroke="#FF0000" stroke-width="0.01" stroke-linejoin="round" d="M602.147,359.104"/>
		<polygon fill="none" stroke="#FF0000" stroke-width="0.01" stroke-linejoin="round" points="602.147,338.943 597.108,347.67 
			587.03,347.67 581.987,338.943 587.03,330.213 597.108,330.213 		"/>
		<path fill="none" stroke="#FF0000" stroke-width="0.01" stroke-linejoin="round" d="M602.147,338.943"/>
		<polygon fill="none" stroke="#FF0000" stroke-width="0.01" stroke-linejoin="round" points="671.269,298.443 666.229,307.174 
			656.147,307.174 651.108,298.443 656.147,289.713 666.229,289.713 		"/>
		<path fill="none" stroke="#FF0000" stroke-width="0.01" stroke-linejoin="round" d="M671.269,298.443"/>
		<polygon fill="none" stroke="#FF0000" stroke-width="0.01" stroke-linejoin="round" points="723.108,328.682 718.069,337.412 
			707.987,337.412 702.948,328.682 707.987,319.955 718.069,319.955 		"/>
		<path fill="none" stroke="#FF0000" stroke-width="0.01" stroke-linejoin="round" d="M723.108,328.682"/>
		<polygon fill="none" stroke="#FF0000" stroke-width="0.01" stroke-linejoin="round" points="740.39,338.764 735.347,347.494 
			725.269,347.494 720.229,338.764 725.269,330.033 735.347,330.033 		"/>
		<path fill="none" stroke="#FF0000" stroke-width="0.01" stroke-linejoin="round" d="M740.39,338.764"/>
		<polygon fill="none" stroke="#FF0000" stroke-width="0.01" stroke-linejoin="round" points="740.39,399.243 735.347,407.97 
			725.269,407.97 720.229,399.243 725.269,390.514 735.347,390.514 		"/>
		<path fill="none" stroke="#FF0000" stroke-width="0.01" stroke-linejoin="round" d="M740.39,399.243"/>
		<polygon fill="none" stroke="#FF0000" stroke-width="0.01" stroke-linejoin="round" points="740.39,419.403 735.347,428.13 
			725.269,428.13 720.229,419.403 725.269,410.673 735.347,410.673 		"/>
		<path fill="none" stroke="#FF0000" stroke-width="0.01" stroke-linejoin="round" d="M740.39,419.403"/>
		<polygon fill="none" stroke="#FF0000" stroke-width="0.01" stroke-linejoin="round" points="688.55,449.821 683.507,458.552 
			673.429,458.552 668.39,449.821 673.429,441.091 683.507,441.091 		"/>
		<path fill="none" stroke="#FF0000" stroke-width="0.01" stroke-linejoin="round" d="M688.55,449.821"/>
		<path fill="none" stroke="#FF0000" stroke-width="0.01" stroke-linejoin="round" d="M757.667,510.481"/>
		<path fill="none" stroke="#FF0000" stroke-width="0.01" stroke-linejoin="round" d="M757.667,469.802"/>
		<polygon fill="none" stroke="#FF0000" stroke-width="0.01" stroke-linejoin="round" points="757.39,327.152 752.351,335.883 
			742.272,335.883 737.229,327.152 742.272,318.426 752.351,318.426 		"/>
		<polygon fill="none" stroke="#FF0000" stroke-width="0.01" stroke-linejoin="round" points="723.108,469.981 718.069,478.712 
			707.987,478.712 702.948,469.981 707.987,461.251 718.069,461.251 		"/>
		<path fill="none" stroke="#FF0000" stroke-width="0.01" stroke-linejoin="round" d="M723.108,469.981"/>
		<polygon fill="none" stroke="#FF0000" stroke-width="0.01" stroke-linejoin="round" points="705.827,459.724 700.788,468.45 
			690.71,468.45 685.667,459.724 690.71,450.993 700.788,450.993 		"/>
		<path fill="none" stroke="#FF0000" stroke-width="0.01" stroke-linejoin="round" d="M705.827,459.724"/>
		<polygon fill="none" stroke="#FF0000" stroke-width="0.01" stroke-linejoin="round" points="723.108,449.821 718.069,458.552 
			707.987,458.552 702.948,449.821 707.987,441.091 718.069,441.091 		"/>
		<path fill="none" stroke="#FF0000" stroke-width="0.01" stroke-linejoin="round" d="M723.108,449.821"/>
		<polygon fill="none" stroke="#FF0000" stroke-width="0.01" stroke-linejoin="round" points="671.269,480.239 666.229,488.97 
			656.147,488.97 651.108,480.239 656.147,471.509 666.229,471.509 		"/>
		<path fill="none" stroke="#FF0000" stroke-width="0.01" stroke-linejoin="round" d="M671.269,480.239"/>
		<path fill="none" stroke="#FF0000" stroke-width="0.01" stroke-linejoin="round" d="M584.87,510.302"/>
		<path fill="none" stroke="#FF0000" stroke-width="0.01" stroke-linejoin="round" d="M602.147,520.56"/>
		<path fill="none" stroke="#FF0000" stroke-width="0.01" stroke-linejoin="round" d="M602.147,500.399"/>
		<path fill="none" stroke="#FF0000" stroke-width="0.01" stroke-linejoin="round" d="M636.71,500.04"/>
		<polygon fill="none" stroke="#FF0000" stroke-width="0.01" stroke-linejoin="round" points="619.429,469.981 614.39,478.712 
			604.308,478.712 599.269,469.981 604.308,461.251 614.39,461.251 		"/>
		<path fill="none" stroke="#FF0000" stroke-width="0.01" stroke-linejoin="round" d="M619.429,469.981"/>
		<polygon fill="none" stroke="#FF0000" stroke-width="0.01" stroke-linejoin="round" points="619.429,449.821 614.39,458.552 
			604.308,458.552 599.269,449.821 604.308,441.091 614.39,441.091 		"/>
		<path fill="none" stroke="#FF0000" stroke-width="0.01" stroke-linejoin="round" d="M619.429,449.821"/>
		<path fill="none" stroke="#FF0000" stroke-width="0.01" stroke-linejoin="round" d="M584.87,469.981"/>
		<path fill="none" stroke="#FF0000" stroke-width="0.01" stroke-linejoin="round" d="M550.308,490.142"/>
		<path fill="none" stroke="#FF0000" stroke-width="0.01" stroke-linejoin="round" d="M550.308,449.642"/>
		<polygon fill="none" stroke="#FF0000" stroke-width="0.01" stroke-linejoin="round" points="584.87,429.661 579.827,438.392 
			569.749,438.392 564.71,429.661 569.749,420.931 579.827,420.931 		"/>
		<path fill="none" stroke="#FF0000" stroke-width="0.01" stroke-linejoin="round" d="M584.87,429.661"/>
		<polygon fill="none" stroke="#FF0000" stroke-width="0.01" stroke-linejoin="round" points="636.71,459.899 631.667,468.63 
			621.589,468.63 616.55,459.899 621.589,451.173 631.667,451.173 		"/>
		<path fill="none" stroke="#FF0000" stroke-width="0.01" stroke-linejoin="round" d="M636.71,459.899"/>
		<polygon fill="none" stroke="#FF0000" stroke-width="0.01" stroke-linejoin="round" points="635.987,298.533 630.948,307.264 
			620.87,307.264 615.827,298.533 620.87,289.803 630.948,289.803 		"/>
		<path fill="none" stroke="#FF0000" stroke-width="0.01" stroke-linejoin="round" d="M635.987,298.533"/>
		<polygon fill="none" stroke="#FF0000" stroke-width="0.01" stroke-linejoin="round" points="618.71,288.451 613.667,297.182 
			603.589,297.182 598.55,288.451 603.589,279.725 613.667,279.725 		"/>
		<path fill="none" stroke="#FF0000" stroke-width="0.01" stroke-linejoin="round" d="M618.71,288.451"/>
		<path fill="none" stroke="#FF0000" stroke-width="0.01" stroke-linejoin="round" d="M670.55,237.783"/>
		<path fill="none" stroke="#FF0000" stroke-width="0.01" stroke-linejoin="round" d="M549.589,268.115"/>
		<polygon fill="none" stroke="#FF0000" stroke-width="0.01" stroke-linejoin="round" points="584.147,288.186 579.108,296.912 
			569.03,296.912 563.987,288.186 569.03,279.455 579.108,279.455 		"/>
		<path fill="none" stroke="#FF0000" stroke-width="0.01" stroke-linejoin="round" d="M584.147,288.186"/>
		<polygon fill="none" stroke="#FF0000" stroke-width="0.01" stroke-linejoin="round" points="670.55,278.104 665.507,286.836 
			655.429,286.836 650.39,278.104 655.429,269.375 665.507,269.375 		"/>
		<path fill="none" stroke="#FF0000" stroke-width="0.01" stroke-linejoin="round" d="M670.55,278.104"/>
		<polygon fill="none" stroke="#FF0000" stroke-width="0.01" stroke-linejoin="round" points="618.71,308.521 613.667,317.254 
			603.589,317.254 598.55,308.521 603.589,299.797 613.667,299.797 		"/>
		<path fill="none" stroke="#FF0000" stroke-width="0.01" stroke-linejoin="round" d="M618.71,308.521"/>
		<path fill="none" stroke="#FF0000" stroke-width="0.01" stroke-linejoin="round" d="M705.827,258.303"/>
		<polygon fill="none" stroke="#FF0000" stroke-width="0.01" stroke-linejoin="round" points="705.827,298.443 700.788,307.174 
			690.71,307.174 685.667,298.443 690.71,289.713 700.788,289.713 		"/>
		<path fill="none" stroke="#FF0000" stroke-width="0.01" stroke-linejoin="round" d="M705.827,298.443"/>
		<path fill="none" stroke="#FF0000" stroke-width="0.01" stroke-linejoin="round" d="M757.667,328.682"/>
		<path fill="none" stroke="#FF0000" stroke-width="0.01" stroke-linejoin="round" d="M827.507,328.326"/>
		<polygon fill="none" stroke="#FF0000" stroke-width="0.01" stroke-linejoin="round" points="775.667,378.814 770.628,387.547 
			760.55,387.547 755.507,378.814 760.55,370.086 770.628,370.086 		"/>
		<path fill="none" stroke="#FF0000" stroke-width="0.01" stroke-linejoin="round" d="M775.667,378.814"/>
		<polygon fill="none" stroke="#FF0000" stroke-width="0.01" stroke-linejoin="round" points="758.39,388.893 753.347,397.622 
			743.269,397.622 738.229,388.893 743.269,380.168 753.347,380.168 		"/>
		<path fill="none" stroke="#FF0000" stroke-width="0.01" stroke-linejoin="round" d="M758.39,388.893"/>
		<polygon fill="none" stroke="#FF0000" stroke-width="0.01" stroke-linejoin="round" points="758.39,429.481 753.347,438.212 
			743.269,438.212 738.229,429.481 743.269,420.751 753.347,420.751 		"/>
		<path fill="none" stroke="#FF0000" stroke-width="0.01" stroke-linejoin="round" d="M758.39,429.481"/>
		<polygon fill="none" stroke="#FF0000" stroke-width="0.01" stroke-linejoin="round" points="758.39,369.004 753.347,377.732 
			743.269,377.732 738.229,369.004 743.269,360.271 753.347,360.271 		"/>
		<path fill="none" stroke="#FF0000" stroke-width="0.01" stroke-linejoin="round" d="M758.39,369.004"/>
		<path fill="none" stroke="#FF0000" stroke-width="0.01" stroke-linejoin="round" d="M549.589,409.591"/>
		<polygon fill="none" stroke="#FF0000" stroke-width="0.01" stroke-linejoin="round" points="566.87,379.264 561.827,387.99 
			551.749,387.99 546.712,379.264 551.749,370.533 561.827,370.533 		"/>
		<path fill="none" stroke="#FF0000" stroke-width="0.01" stroke-linejoin="round" d="M566.87,379.264"/>
		<polygon fill="none" stroke="#FF0000" stroke-width="0.01" stroke-linejoin="round" points="584.147,369.182 579.108,377.912 
			569.03,377.912 563.987,369.182 569.03,360.451 579.108,360.451 		"/>
		<path fill="none" stroke="#FF0000" stroke-width="0.01" stroke-linejoin="round" d="M584.147,369.182"/>
		<path fill="none" stroke="#FF0000" stroke-width="0.01" stroke-linejoin="round" d="M549.589,348.842"/>
		<path fill="none" stroke="#FF0000" stroke-width="0.01" stroke-linejoin="round" d="M549.589,308.701"/>
		<polygon fill="none" stroke="#FF0000" stroke-width="0.01" stroke-linejoin="round" points="584.147,328.861 579.108,337.592 
			569.03,337.592 563.987,328.861 569.03,320.131 579.108,320.131 		"/>
		<path fill="none" stroke="#FF0000" stroke-width="0.01" stroke-linejoin="round" d="M584.147,328.861"/>
		<polygon fill="none" stroke="#FF0000" stroke-width="0.01" stroke-linejoin="round" points="584.147,389.342 579.108,398.071 
			569.03,398.071 563.987,389.342 569.03,380.611 579.108,380.611 		"/>
		<path fill="none" stroke="#FF0000" stroke-width="0.01" stroke-linejoin="round" d="M584.147,389.342"/>
		<path fill="none" stroke="#FF0000" stroke-width="0.01" d="M507.952,27.65"/>
		<path fill="none" stroke="#FF0000" stroke-width="0.01" d="M861.206,516.962"/>
		<path fill="none" stroke="#FF0000" stroke-width="0.01" d="M659.573,517.485"/>
		<path fill="none" stroke="#FF0000" stroke-width="0.01" d="M508.827,773.038"/>
		<path fill="none" stroke="#FF0000" stroke-width="0.01" d="M863.831,763.421"/>
		<path fill="none" stroke="#FF0000" stroke-width="0.01" d="M523.128,665.015"/>
		<path fill="none" stroke="#FF0000" stroke-width="0.01" d="M523.128,154.533"/>
		<path fill="none" stroke="#FF0000" stroke-width="0.01" d="M866.353,664.292"/>
		<path fill="none" stroke="#FF0000" stroke-width="0.01" d="M506.024,28.822"/>
		<path fill="none" stroke="#FF0000" stroke-width="0.01" d="M859.282,518.13"/>
		<path fill="none" stroke="#FF0000" stroke-width="0.01" d="M657.646,518.657"/>
		<path fill="none" stroke="#FF0000" stroke-width="0.01" d="M506.899,774.21"/>
		<path fill="none" stroke="#FF0000" stroke-width="0.01" d="M861.903,764.589"/>
		<path fill="none" stroke="#FF0000" stroke-width="0.01" stroke-linejoin="round" d="M459.069,807.876"/>
		<g>
			<path fill="none" stroke="#FF0000" stroke-width="0.01" stroke-miterlimit="10" d="M834.46,543.948c2.2,0,4,1.8,4,4v204.598
				c0,2.2-1.8,4-4,4H536.317c-2.2,0-4-1.8-4-4V547.948c0-2.2,1.8-4,4-4H834.46z"/>
		</g>
		<g>
			<polygon fill="none" stroke="#FF0000" stroke-width="0.01" stroke-linejoin="round" points="817.489,237.307 812.45,246.037 
				802.368,246.037 797.329,237.307 802.368,228.576 812.45,228.576 			"/>
			<circle fill="none" stroke="#FF0000" stroke-width="0.01" cx="724.435" cy="297.607" r="4.961"/>
			<circle fill="none" stroke="#FF0000" stroke-width="0.01" cx="890.261" cy="297.607" r="4.961"/>
			<path fill="none" stroke="#FF0000" stroke-width="0.01" d="M890.132,245.607c-2.428,0-4.391-1.965-4.391-4.391
				c0-2.422,1.963-4.391,4.391-4.391c2.422,0,4.387,1.969,4.387,4.391C894.519,243.643,892.554,245.607,890.132,245.607
				L890.132,245.607z"/>
			<path fill="none" stroke="#FF0000" stroke-width="0.01" d="M724.304,245.607c-2.426,0-4.391-1.965-4.391-4.391
				c0-2.422,1.965-4.391,4.391-4.391s4.391,1.969,4.391,4.391C728.694,243.643,726.729,245.607,724.304,245.607L724.304,245.607z"/>
		</g>
		<path fill="none" stroke="#FF0000" stroke-width="0.01" stroke-miterlimit="10" d="M508.022,671.905"/>
		<polygon fill="none" stroke="#FF0000" stroke-width="0.01" points="851.981,643.163 855.489,641.708 856.942,638.202 
			855.489,634.694 851.981,633.241 848.474,634.694 847.021,638.202 848.474,641.708 		"/>
		<g>
			<circle fill="none" stroke="#FF0000" stroke-width="0.01" cx="773.636" cy="513.571" r="4.252"/>
			<circle fill="none" stroke="#FF0000" stroke-width="0.01" cx="773.636" cy="459.696" r="4.252"/>
			<circle fill="none" stroke="#FF0000" stroke-width="0.01" cx="836.511" cy="513.696" r="4.252"/>
			<circle fill="none" stroke="#FF0000" stroke-width="0.01" cx="836.636" cy="459.696" r="4.252"/>
		</g>
		<path fill="none" stroke="#FF0000" stroke-width="0.01" stroke-linejoin="round" d="M886.165,831.46
			C887.286,831.46,884.147,831.517,886.165,831.46c3.275-0.09,6.658-0.207,6.658-0.207c13.164,0,23.766-10.428,23.766-23.377V25.031
			c0-12.953-10.602-23.377-23.766-23.377H482.835c-13.168,0-23.766,10.424-23.766,23.377v782.845l0,0
			c0,12.949,10.598,23.377,23.766,23.377h218c0,0,6.181,0.391,7.666-1.098c1.486-1.49,1.432-5.916,1.432-5.916v-30.334
			c0,0-0.41-4.271,0.736-5.418c0.896-0.896,4.333-1.064,4.333-1.064h85.147h75.852c0,0,3.523-0.16,4.416,0.732
			c0.955,0.953,0.633,4.666,0.633,4.666v32.75c0,0-0.215,2.25,1.035,4.166C883.353,831.683,886.165,831.46,886.165,831.46z"/>
		<path fill="none" stroke="#FF0000" stroke-width="0.01" stroke-linejoin="round" d="M705.827,217.623"/>
		<g>
			<g>
				<path fill="none" stroke="#FF0000" stroke-width="0.01" stroke-linejoin="round" d="M569.178,18.338
					c-28.733,0.357-51.862,21.08-51.862,46.65v55.666c0,25.795,23.455,46.668,52.444,46.668v-0.088
					c0.649,0.066,1.307,0.102,1.974,0.102h9.414c10.432,0,18.832-8.225,18.832-18.436V36.58c0-10.211-8.4-18.43-18.832-18.43h-9.414
					C570.864,18.15,570.016,18.229,569.178,18.338z"/>
			</g>
		</g>
		<g>
			<path fill="#FFFF00" d="M884.292,465.735c0.793,0.84,1.188,1.904,1.188,3.193c0,1.295-0.426,2.375-1.277,3.24
				c-0.852,0.863-1.957,1.295-3.318,1.295c-1.248,0-2.256-0.447-3.023-1.344c-0.744-0.855-1.115-1.939-1.115-3.252
				c0-1.248,0.426-2.299,1.277-3.15s1.902-1.277,3.15-1.277C882.444,464.44,883.483,464.872,884.292,465.735z M878.413,466.696
				c-0.76,0.471-1.141,1.188-1.141,2.148c0,0.928,0.428,1.668,1.283,2.219c0.744,0.48,1.609,0.721,2.592,0.721
				c2.537,0,3.805-0.912,3.805-2.736c0-0.92-0.432-1.652-1.295-2.195c-0.785-0.488-1.754-0.732-2.904-0.732
				C879.8,466.12,879.021,466.312,878.413,466.696z"/>
			<path fill="#FFFF00" d="M876.948,476.038c0.016-0.236,0.023-0.414,0.023-0.535c0-0.15-0.008-0.381-0.023-0.689
				s-0.023-0.537-0.023-0.689h0.359v0.156c0,0.287,0.1,0.541,0.301,0.762c0.199,0.221,0.459,0.33,0.779,0.33h5.053
				c1.016,0,1.523-0.359,1.523-1.08v-0.168h0.359c0,0.184-0.008,0.457-0.023,0.822c-0.016,0.363-0.023,0.633-0.023,0.809
				c0,0.178,0.008,0.438,0.023,0.781s0.023,0.6,0.023,0.768h-0.359v-0.203c0-0.449-0.1-0.748-0.301-0.9
				c-0.199-0.152-0.566-0.229-1.104-0.229h-4.943l6.887,6.18v0.457c-0.295-0.049-0.699-0.072-1.211-0.072h-5.461
				c-0.639,0-1.07,0.115-1.295,0.348c-0.152,0.152-0.229,0.393-0.229,0.721v0.18h-0.359c0-0.16,0.008-0.404,0.023-0.732
				s0.023-0.576,0.023-0.744c0-0.184-0.008-0.461-0.023-0.834c-0.016-0.371-0.023-0.654-0.023-0.846h0.359v0.264
				c0,0.695,0.377,1.045,1.129,1.045h4.5l0.023-0.025l-6.012-5.34C876.925,476.452,876.933,476.274,876.948,476.038z"/>
			<path fill="#FFFF00" d="M884.292,495.747c0.793,0.84,1.188,1.904,1.188,3.193c0,1.295-0.426,2.375-1.277,3.24
				c-0.852,0.863-1.957,1.295-3.318,1.295c-1.248,0-2.256-0.447-3.023-1.344c-0.744-0.855-1.115-1.939-1.115-3.252
				c0-1.248,0.426-2.299,1.277-3.15s1.902-1.277,3.15-1.277C882.444,494.452,883.483,494.884,884.292,495.747z M878.413,496.708
				c-0.76,0.471-1.141,1.188-1.141,2.148c0,0.928,0.428,1.668,1.283,2.219c0.744,0.48,1.609,0.721,2.592,0.721
				c2.537,0,3.805-0.912,3.805-2.736c0-0.92-0.432-1.652-1.295-2.195c-0.785-0.488-1.754-0.732-2.904-0.732
				C879.8,496.132,879.021,496.323,878.413,496.708z"/>
			<path fill="#FFFF00" d="M877.452,508.72c0,0.439,0.133,0.752,0.396,0.936c0.199,0.145,0.535,0.236,1.008,0.275l-0.096,0.361
				c-0.633-0.041-1.244-0.049-1.836-0.025c0-0.256,0.008-0.742,0.023-1.463s0.023-1.256,0.023-1.607
				c0-0.361-0.008-0.893-0.023-1.598c-0.016-0.703-0.023-1.168-0.023-1.391h0.359v0.168c0,0.592,0.229,0.887,0.684,0.887h6.289
				c0.455,0,0.684-0.295,0.684-0.887v-0.168h0.359c0,0.152-0.008,0.441-0.023,0.869s-0.023,0.75-0.023,0.967
				c0,0.24,0.008,0.6,0.023,1.08s0.023,0.807,0.023,0.984h-0.359v-0.156c0-0.385-0.031-0.652-0.096-0.805
				c-0.088-0.232-0.285-0.348-0.588-0.348h-3.061v1.488c0,0.639,0.393,0.959,1.176,0.959v0.361
				c-0.439-0.033-0.928-0.049-1.463-0.049c-0.281,0-0.709,0.016-1.285,0.049v-0.361c0.648,0,0.973-0.256,0.973-0.768v-1.68h-3.145
				V508.72z"/>
			<path fill="#FFFF00" d="M877.452,515.392c0,0.439,0.133,0.752,0.396,0.936c0.199,0.145,0.535,0.236,1.008,0.275l-0.096,0.361
				c-0.633-0.041-1.244-0.049-1.836-0.025c0-0.256,0.008-0.742,0.023-1.463s0.023-1.256,0.023-1.607
				c0-0.361-0.008-0.893-0.023-1.598c-0.016-0.703-0.023-1.168-0.023-1.391h0.359v0.168c0,0.592,0.229,0.887,0.684,0.887h6.289
				c0.455,0,0.684-0.295,0.684-0.887v-0.168h0.359c0,0.152-0.008,0.441-0.023,0.869s-0.023,0.75-0.023,0.967
				c0,0.24,0.008,0.6,0.023,1.08s0.023,0.807,0.023,0.984h-0.359v-0.156c0-0.385-0.031-0.652-0.096-0.805
				c-0.088-0.232-0.285-0.348-0.588-0.348h-3.061v1.488c0,0.639,0.393,0.959,1.176,0.959v0.361
				c-0.439-0.033-0.928-0.049-1.463-0.049c-0.281,0-0.709,0.016-1.285,0.049v-0.361c0.648,0,0.973-0.256,0.973-0.768v-1.68h-3.145
				V515.392z"/>
		</g>
		<path fill="none" stroke="#FF0000" stroke-width="0.01" d="M883.274,37.342"/>
		<path fill="none" stroke="#FF0000" stroke-width="0.01" d="M858.212,194.779"/>
		<path fill="none" stroke="#FF0000" stroke-width="0.01" d="M506.899,762.407c2.648,0,4.793,2.145,4.793,4.789
			c0,2.648-2.145,4.791-4.793,4.791c-2.645,0-4.789-2.143-4.789-4.791C502.11,764.552,504.255,762.407,506.899,762.407
			L506.899,762.407z"/>
		<path fill="none" stroke="#FF0000" stroke-width="0.01" d="M625.452,763.118c2.648,0,4.793,2.145,4.793,4.789
			c0,2.648-2.145,4.791-4.793,4.791c-2.645,0-4.789-2.143-4.789-4.791C620.663,765.263,622.808,763.118,625.452,763.118
			L625.452,763.118z"/>
		<path fill="none" stroke="#FF0000" stroke-width="0.01" d="M821.463,764.14c2.648,0,4.793,2.145,4.793,4.789
			c0,2.648-2.145,4.791-4.793,4.791c-2.645,0-4.789-2.143-4.789-4.791C816.674,766.284,818.818,764.14,821.463,764.14
			L821.463,764.14z"/>
		<path fill="none" stroke="#FF0000" stroke-width="0.01" d="M861.903,752.788c2.648,0,4.793,2.145,4.793,4.789
			c0,2.648-2.145,4.791-4.793,4.791c-2.645,0-4.789-2.143-4.789-4.791C857.114,754.933,859.259,752.788,861.903,752.788
			L861.903,752.788z"/>
		<path fill="none" stroke="#FF0000" stroke-width="0.01" d="M851.937,633.112c2.648,0,4.793,2.145,4.793,4.789
			c0,2.648-2.145,4.791-4.793,4.791c-2.645,0-4.789-2.143-4.789-4.791C847.147,635.257,849.292,633.112,851.937,633.112
			L851.937,633.112z"/>
		<path fill="none" stroke="#FF0000" stroke-width="0.01" d="M821.485,530.313c2.648,0,4.793,2.145,4.793,4.789
			c0,2.648-2.145,4.791-4.793,4.791c-2.645,0-4.789-2.143-4.789-4.791C816.696,532.458,818.841,530.313,821.485,530.313
			L821.485,530.313z"/>
		<path fill="none" stroke="#FF0000" stroke-width="0.01" d="M859.371,509.712c2.648,0,4.793,2.145,4.793,4.789
			c0,2.648-2.145,4.791-4.793,4.791c-2.645,0-4.789-2.143-4.789-4.791C854.582,511.856,856.727,509.712,859.371,509.712
			L859.371,509.712z"/>
		<path fill="none" stroke="#FF0000" stroke-width="0.01" d="M657.483,509.86c2.648,0,4.793,2.145,4.793,4.789
			c0,2.648-2.145,4.791-4.793,4.791c-2.645,0-4.789-2.143-4.789-4.791C652.694,512.005,654.839,509.86,657.483,509.86
			L657.483,509.86z"/>
		<path fill="none" stroke="#FF0000" stroke-width="0.01" d="M647.218,528.829c2.648,0,4.793,2.145,4.793,4.789
			c0,2.648-2.145,4.791-4.793,4.791c-2.645,0-4.789-2.143-4.789-4.791C642.429,530.974,644.573,528.829,647.218,528.829
			L647.218,528.829z"/>
		<path fill="none" stroke="#FF0000" stroke-width="0.01" d="M555.636,528.776c2.648,0,4.793,2.145,4.793,4.789
			c0,2.648-2.145,4.791-4.793,4.791c-2.645,0-4.789-2.143-4.789-4.791C550.847,530.921,552.991,528.776,555.636,528.776
			L555.636,528.776z"/>
		<path fill="none" stroke="#FF0000" stroke-width="0.01" d="M519.449,645.458c2.648,0,4.793,2.145,4.793,4.789
			c0,2.648-2.145,4.791-4.793,4.791c-2.645,0-4.789-2.143-4.789-4.791C514.66,647.603,516.805,645.458,519.449,645.458
			L519.449,645.458z"/>
		<path fill="none" stroke="#FF0000" stroke-width="0.01" d="M657.517,185.764c2.648,0,4.793,2.145,4.793,4.789
			c0,2.648-2.145,4.791-4.793,4.791c-2.645,0-4.789-2.143-4.789-4.791C652.728,187.908,654.872,185.764,657.517,185.764
			L657.517,185.764z"/>
		<path fill="none" stroke="#FF0000" stroke-width="0.01" d="M642.362,25.322c2.648,0,4.793,2.145,4.793,4.789
			c0,2.648-2.145,4.791-4.793,4.791c-2.645,0-4.789-2.143-4.789-4.791C637.573,27.467,639.718,25.322,642.362,25.322L642.362,25.322
			z"/>
		<path fill="none" stroke="#FF0000" stroke-width="0.01" d="M506.023,17.191c2.648,0,4.793,2.145,4.793,4.789
			c0,2.648-2.145,4.791-4.793,4.791c-2.645,0-4.789-2.143-4.789-4.791C501.234,19.336,503.379,17.191,506.023,17.191L506.023,17.191
			z"/>
		<path fill="none" stroke="#FF0000" stroke-width="0.01" d="M858.755,185.791c2.648,0,4.793,2.145,4.793,4.789
			c0,2.648-2.145,4.791-4.793,4.791c-2.645,0-4.789-2.143-4.789-4.791C853.966,187.936,856.11,185.791,858.755,185.791
			L858.755,185.791z"/>
		<path fill="none" stroke="#FF0000" stroke-width="0.01" d="M883.357,26.146c2.648,0,4.793,2.145,4.793,4.789
			c0,2.648-2.145,4.791-4.793,4.791c-2.645,0-4.789-2.143-4.789-4.791C878.568,28.291,880.713,26.146,883.357,26.146L883.357,26.146
			z"/>
		<path fill="none" stroke="#FF0000" stroke-width="0.01" d="M555.412,763.118c2.648,0,4.793,2.145,4.793,4.789
			c0,2.648-2.145,4.791-4.793,4.791c-2.645,0-4.789-2.143-4.789-4.791C550.623,765.263,552.768,763.118,555.412,763.118
			L555.412,763.118z"/>
	</g>
</g>
<g>
	<g>
		<path fill="none" stroke="#FF0000" stroke-width="0.01" d="M335.329,656.053h25.199v11h26.348v-3.602h11.875v-7h-11.875v-5.449
			h11.578v-7.875h-11.578v-6.5h11.578v-4.922l-11.434-0.145l-0.145-2.16h-26.348v7.227h-25.199V656.053z M335.329,656.053"/>
		<g>
			<path fill="none" stroke="#FF0000" stroke-width="0.01" d="M344.134,683.084c-4.677,0-8.504-3.827-8.504-8.504v-54.688
				c0-4.677,3.827-8.504,8.504-8.504h63.625c4.677,0,8.504,3.827,8.504,8.504v54.688c0,4.677-3.827,8.504-8.504,8.504H344.134z"/>
		</g>
		<circle fill="none" stroke="#FF0000" stroke-width="0.01" cx="344.388" cy="620.139" r="4.252"/>
		<circle fill="none" stroke="#FF0000" stroke-width="0.01" cx="344.388" cy="674.014" r="4.252"/>
		<circle fill="none" stroke="#FF0000" stroke-width="0.01" cx="407.263" cy="620.014" r="4.252"/>
		<circle fill="none" stroke="#FF0000" stroke-width="0.01" cx="407.388" cy="674.014" r="4.252"/>
	</g>
	<g>
		<g>
			<path fill="none" stroke="#FF0000" stroke-width="0.01" d="M64.919,518.785c0-2.339,1.913-4.252,4.252-4.252h24.076
				c2.339,0,4.252,1.913,4.252,4.252v44.246c0,2.339-1.913,4.252-4.252,4.252H69.171c-2.339,0-4.252-1.913-4.252-4.252V518.785z"/>
		</g>
		<g>
			<path fill="none" stroke="#FF0000" stroke-width="0.01" d="M106.749,570.42c0-2.339,1.913-4.252,4.252-4.252h44.436
				c2.339,0,4.252,1.913,4.252,4.252v22.465c0,2.339-1.913,4.252-4.252,4.252h-44.436c-2.339,0-4.252-1.913-4.252-4.252V570.42z"/>
		</g>
		<g>
			<path fill="none" stroke="#FF0000" stroke-width="0.01" d="M61.487,606.619c0-2.339,1.913-4.252,4.252-4.252h11.496
				c2.339,0,4.252,1.913,4.252,4.252V648.4c0,2.339-1.913,4.252-4.252,4.252H65.739c-2.339,0-4.252-1.913-4.252-4.252V606.619z"/>
		</g>
		<g>
			<path fill="none" stroke="#FF0000" stroke-width="0.01" d="M110.058,647.764c0-2.339,1.913-4.252,4.252-4.252h11.781
				c2.339,0,4.252,1.913,4.252,4.252v9.213c0,2.339-1.913,4.252-4.252,4.252H114.31c-2.339,0-4.252-1.913-4.252-4.252V647.764z"/>
		</g>
		<g>
			<path fill="none" stroke="#FF0000" stroke-width="0.01" d="M109.487,510.62c0-2.339,1.913-4.252,4.252-4.252h12.352
				c2.339,0,4.252,1.913,4.252,4.252v11.781c0,2.339-1.913,4.252-4.252,4.252h-12.352c-2.339,0-4.252-1.913-4.252-4.252V510.62z"/>
		</g>
		<g>
			<path fill="none" stroke="#FF0000" stroke-width="0.01" d="M152.704,500.919c0,2.428-1.965,4.391-4.393,4.391
				c-2.42,0-4.391-1.963-4.391-4.391c0-2.422,1.971-4.387,4.391-4.387C150.739,496.532,152.704,498.497,152.704,500.919
				L152.704,500.919z"/>
			<path fill="none" stroke="#FF0000" stroke-width="0.01" d="M152.704,666.746c0,2.426-1.965,4.391-4.393,4.391
				c-2.42,0-4.391-1.965-4.391-4.391s1.971-4.391,4.391-4.391C150.739,662.355,152.704,664.32,152.704,666.746L152.704,666.746z"/>
		</g>
		<g>
			<path fill="none" stroke="#FF0000" stroke-width="0.01" d="M96.011,500.921c0,2.426-1.965,4.391-4.393,4.391
				c-2.42,0-4.391-1.965-4.391-4.391c0-2.422,1.971-4.387,4.391-4.387C94.046,496.534,96.011,498.499,96.011,500.921L96.011,500.921
				z"/>
			<path fill="none" stroke="#FF0000" stroke-width="0.01" d="M96.011,666.748c0,2.426-1.965,4.391-4.393,4.391
				c-2.42,0-4.391-1.965-4.391-4.391s1.971-4.391,4.391-4.391C94.046,662.357,96.011,664.322,96.011,666.748L96.011,666.748z"/>
		</g>
		<path fill="none" stroke="#FF0000" stroke-width="0.01" d="M153.905,490.876c2.197,0,8.709,2.953,10.166,5.083
			c1.504,2.198,5.084,8.772,5.084,12.167l-0.256,159.86c0,6.686-3.619,12.104-8.084,12.104H64.95c-4.463,0-8.082-5.418-8.082-12.104
			V502.915c0-6.686,3.619-12.104,8.082-12.104L153.905,490.876z"/>
		<path fill="none" stroke="#FF0000" stroke-width="0.01" stroke-linejoin="round" d="M159.444,568.688"/>
		<path fill="none" stroke="#FF0000" stroke-width="0.01" stroke-linejoin="round" d="M159.354,499.565"/>
	</g>
	<path fill="none" stroke="#FF0000" stroke-width="0.01" d="M428.353,793.17"/>
	<path fill="none" stroke="#FF0000" stroke-width="0.01" d="M50.96,802.437"/>
	<path fill="none" stroke="#FF0000" stroke-width="0.01" d="M51.835,57.05"/>
	<path fill="none" stroke="#FF0000" stroke-width="0.01" d="M406.839,66.669"/>
	<path fill="none" stroke="#FF0000" stroke-width="0.01" stroke-linejoin="round" d="M0.005,23.382
		c0-12.949,10.598-23.377,23.766-23.377h409.988c13.164,0,23.766,10.428,23.766,23.377v782.846
		c0,12.954-10.602,23.377-23.766,23.377H23.771c-13.168,0-23.766-10.423-23.766-23.377V23.382L0.005,23.382z M0.005,23.382"/>
	<g>
		<path fill="none" stroke="#FF0000" stroke-width="0.01" stroke-linejoin="round" d="M429.407,148.667
			c0-2.339-1.913-4.252-4.252-4.252H56.185c-2.339,0-4.252,1.913-4.252,4.252v535.019c0,2.339,1.913,4.252,4.252,4.252h368.971
			c2.339,0,4.252-1.913,4.252-4.252V148.667z"/>
	</g>
	<path fill="none" stroke="#FF0000" stroke-width="0.01" d="M406.952,68.72c2.648,0,4.793,2.145,4.793,4.789
		c0,2.648-2.145,4.791-4.793,4.791c-2.645,0-4.789-2.143-4.789-4.791C402.163,70.864,404.308,68.72,406.952,68.72L406.952,68.72z"/>
	<path fill="none" stroke="#FF0000" stroke-width="0.01" d="M52.075,59.102c2.648,0,4.793,2.145,4.793,4.789
		c0,2.648-2.145,4.791-4.793,4.791c-2.645,0-4.789-2.143-4.789-4.791C47.286,61.246,49.431,59.102,52.075,59.102L52.075,59.102z"/>
	<path fill="none" stroke="#FF0000" stroke-width="0.01" d="M51.2,804.489c2.648,0,4.793,2.145,4.793,4.789
		c0,2.648-2.145,4.791-4.793,4.791c-2.645,0-4.789-2.143-4.789-4.791C46.411,806.634,48.556,804.489,51.2,804.489L51.2,804.489z"/>
	<path fill="none" stroke="#FF0000" stroke-width="0.01" d="M428.589,795.22c2.648,0,4.793,2.145,4.793,4.789
		c0,2.648-2.145,4.791-4.793,4.791c-2.645,0-4.789-2.143-4.789-4.791C423.8,797.364,425.944,795.22,428.589,795.22L428.589,795.22z"
		/>
	<g>
		<path fill="none" stroke="#E42520" stroke-width="0.01" d="M185.764,606.801"/>
		<path fill="none" stroke="#E42520" stroke-width="0.01" stroke-miterlimit="10" d="M188.713,675.363
			c-5.699,0-10.318-5.371-10.318-12v-77.816v-80.332v-63.731c0-6.629,39.959-4.748,45.654-4.522
			c12.615,0.5,1.025-14.494,9.018-15.833c4.49-0.752,15.471-1.11,17.918,1.334c3.186,3.183,1.094,14.003,5.67,14.003
			c5.834,0,27.047,0.753,41.018-0.247c4.023-0.288,2.35-11.045,5.563-14.257c2.441-2.441,10.732-1.582,10.732-1.582
			c5.697,0,10.318,5.371,10.318,12v83.566c0,0,0.855,5.883,2.51,7.5c2.023,1.98,8.813,1.5,8.813,1.5l15.061-0.053
			c0,0,5.232,0.102,6.689,1.553c1.264,1.262,1.531,5.563,1.531,5.563l-0.002,31.813c0,0,0.094,3.939-1.092,5.125
			c-1.344,1.344-6.5,1.584-6.5,1.584h-15.939c0,0-6.486,0.264-8.436,2.229c-1.57,1.584-2.563,6.688-2.563,6.688l-0.072,83.918
			c0,6.629-4.621,12-10.318,12H188.713z"/>
		<path fill="none" stroke="#E42520" stroke-width="0.01" d="M311.238,435.001c-2.648,0-4.793-2.145-4.793-4.789
			c0-2.648,2.145-4.791,4.793-4.791c2.645,0,4.789,2.143,4.789,4.791C316.027,432.856,313.883,435.001,311.238,435.001
			L311.238,435.001z"/>
		<path fill="none" stroke="#E42520" stroke-width="0.01" d="M241.457,434.91c-2.648,0-4.793-2.145-4.793-4.789
			c0-2.648,2.145-4.791,4.793-4.791c2.645,0,4.789,2.143,4.789,4.791C246.246,432.766,244.102,434.91,241.457,434.91L241.457,434.91
			z"/>
		<path fill="none" stroke="#E42520" stroke-width="0.01" d="M347.461,552.146c-2.648,0-4.793-2.145-4.793-4.789
			c0-2.648,2.145-4.791,4.793-4.791c2.645,0,4.789,2.143,4.789,4.791C352.25,550.001,350.105,552.146,347.461,552.146
			L347.461,552.146z"/>
		<path fill="none" stroke="#E42520" stroke-width="0.01" d="M311.119,669.41c-2.648,0-4.793-2.145-4.793-4.789
			c0-2.648,2.145-4.791,4.793-4.791c2.645,0,4.789,2.143,4.789,4.791C315.908,667.266,313.764,669.41,311.119,669.41L311.119,669.41
			z"/>
		<path fill="none" stroke="#E42520" stroke-width="0.01" d="M219.26,669.313c-2.648,0-4.793-2.145-4.793-4.789
			c0-2.648,2.145-4.791,4.793-4.791c2.645,0,4.789,2.143,4.789,4.791C224.049,667.169,221.904,669.313,219.26,669.313
			L219.26,669.313z"/>
		<path fill="none" stroke="#E42520" stroke-width="0.01" d="M297.674,630.846c-1.371,0-2.482-1.11-2.482-2.479
			c0-1.372,1.111-2.481,2.482-2.481c1.369,0,2.479,1.109,2.479,2.481C300.152,629.735,299.043,630.846,297.674,630.846
			L297.674,630.846z"/>
		<path fill="none" stroke="#E42520" stroke-width="0.01" d="M297.674,474.852c-1.371,0-2.482-1.11-2.482-2.479
			c0-1.372,1.111-2.481,2.482-2.481c1.369,0,2.479,1.109,2.479,2.481C300.152,473.741,299.043,474.852,297.674,474.852
			L297.674,474.852z"/>
	</g>
	<g>
		<path fill="none" stroke="#FF0000" stroke-width="0.01" d="M335.423,482.98h25.201v7.227h26.346l0.145-2.161l11.434-0.144v-4.922
			H386.97v-6.501h11.578v-7.875H386.97v-5.449h11.875v-6.999H386.97v-3.602h-26.346v11h-25.201V482.98z M335.423,463.555"/>
		<g>
			<path fill="none" stroke="#FF0000" stroke-width="0.01" d="M344.228,436.523c-4.677,0-8.504,3.827-8.504,8.504v54.688
				c0,4.677,3.827,8.504,8.504,8.504h63.625c4.677,0,8.504-3.827,8.504-8.504v-54.688c0-4.677-3.827-8.504-8.504-8.504H344.228z"/>
		</g>
		<rect x="386.306" y="456.03" fill="none" stroke="#FF0000" stroke-width="0.01" width="30.164" height="31.863"/>
		<circle fill="none" stroke="#FF0000" stroke-width="0.01" cx="344.481" cy="499.469" r="4.252"/>
		<circle fill="none" stroke="#FF0000" stroke-width="0.01" cx="344.481" cy="445.594" r="4.252"/>
		<circle fill="none" stroke="#FF0000" stroke-width="0.01" cx="407.356" cy="499.594" r="4.252"/>
		<circle fill="none" stroke="#FF0000" stroke-width="0.01" cx="407.481" cy="445.594" r="4.252"/>
	</g>
</g>
</svg>
